<svg height="400" style='style="outline: 5px solid #800000;"' viewBox="0 0 400 400" width="400" xmlns="http://www.w3.org/2000/svg">
<rect fill="#ffffff" height="400" width="400" x="0" y="0"/>
<path d="M200,200 L200,200 L200,200 L200,-40 L200,200 L200,200 L80,200 L80,200 L80,-80 L80,480 L80,0 L80,-280 L80,200 L440,200 L80,200 L-160,200 L400,200 L600,200 L200,200 L200,-120 L200,200 L-40,200 L520,200 L80,200 L0,200 L-200,200 L480,200 L160,200 L160,200 L160,200 L160,200 L160,280 L160,600 L160,80 L160,80 L200,80 L200,80 L200,360 L200,720 L200,-160 L200,560" fill="none" stroke="#2f2f2f" stroke-opacity="0.9" stroke-width="5"/>
<rect fill="#ffffff" full-opacity="0.0" height="400" stroke="#cccccc" stroke-width="15" width="400" x="0" y="0"/>
</svg>